<svg xmlns="http://www.w3.org/2000/svg" width="76.003" height="67.86" viewBox="0 0 76.003 67.86">
  <g id="E-ecomerce" transform="translate(-32 -56)">
    <path id="Path_54299" data-name="Path 54299" d="M119.229,346.714h7.653l.452-2.714h-8.558Z" transform="translate(-72.055 -239.141)" fill="#333"/>
    <circle id="Ellipse_9410" data-name="Ellipse 9410" cx="1.442" cy="1.442" r="1.442" transform="translate(60.388 115.886)" fill="#333"/>
    <path id="Path_54300" data-name="Path 54300" d="M124.562,378.714h5.844l.452-2.714H124.11Z" transform="translate(-76.484 -265.712)" fill="#333"/>
    <path id="Path_54301" data-name="Path 54301" d="M187.172,346.72l.6-2.72h-4.547l-.452,2.714h4.279C187.1,346.714,187.134,346.717,187.172,346.72Z" transform="translate(-125.198 -239.141)" fill="#333"/>
    <path id="Path_54302" data-name="Path 54302" d="M193.412,312h-4.849l-.452,2.714h4.7Z" transform="translate(-129.626 -212.57)" fill="#333"/>
    <ellipse id="Ellipse_9411" data-name="Ellipse 9411" cx="2.403" cy="2.884" rx="2.403" ry="2.884" transform="translate(78.653 110.118)" fill="#333"/>
    <path id="Path_54303" data-name="Path 54303" d="M152,168h1.357v1.357H152Z" transform="translate(-99.642 -92.999)" fill="#333"/>
    <path id="Path_54304" data-name="Path 54304" d="M128,192h1.357v1.357H128Z" transform="translate(-79.714 -112.928)" fill="#333"/>
    <ellipse id="Ellipse_9412" data-name="Ellipse 9412" cx="2.403" cy="2.884" rx="2.403" ry="2.884" transform="translate(78.653 74.549)" fill="#333"/>
    <path id="Path_54305" data-name="Path 54305" d="M128,168h1.357v1.357H128Z" transform="translate(-79.714 -92.999)" fill="#333"/>
    <path id="Path_54306" data-name="Path 54306" d="M152,192h1.357v1.357H152Z" transform="translate(-99.642 -112.928)" fill="#333"/>
    <path id="Path_54307" data-name="Path 54307" d="M182.142,376H177.9l-.452,2.714h4.1Z" transform="translate(-120.77 -265.712)" fill="#333"/>
    <path id="Path_54308" data-name="Path 54308" d="M71.288,314.714,70.835,312H65.444l.452,2.714Z" transform="translate(-27.77 -212.57)" fill="#333"/>
    <path id="Path_54309" data-name="Path 54309" d="M123.359,314.714l.452-2.714H113.444l.452,2.714Z" transform="translate(-67.627 -212.57)" fill="#333"/>
    <path id="Path_54310" data-name="Path 54310" d="M32,174.966A2.038,2.038,0,0,0,34.036,177h71.931A2.038,2.038,0,0,0,108,174.966V120H32Zm48.859-3.393a5.429,5.429,0,1,1,5.429-5.429A5.429,5.429,0,0,1,80.859,171.573Zm0-16.286a1.357,1.357,0,0,1,0-2.714,2.718,2.718,0,0,0,2.714-2.714,1.357,1.357,0,0,1,2.714,0A5.435,5.435,0,0,1,80.859,155.287Zm9.5-28.5h2.714a1.357,1.357,0,1,1,0,2.714H90.359a1.357,1.357,0,0,1,0-2.714Zm0,5.429h10.858a1.357,1.357,0,1,1,0,2.714H90.359a1.357,1.357,0,1,1,0-2.714Zm0,13.572h4.072a1.357,1.357,0,1,1,0,2.714H90.359a1.357,1.357,0,0,1,0-2.714Zm0,5.429h10.858a1.357,1.357,0,0,1,0,2.714H90.359a1.357,1.357,0,0,1,0-2.714Zm0,10.858h2.714a1.357,1.357,0,1,1,0,2.714H90.359a1.357,1.357,0,1,1,0-2.714Zm0,5.429h10.858a1.357,1.357,0,0,1,0,2.714H90.359a1.357,1.357,0,0,1,0-2.714Zm-9.5-42.073a5.429,5.429,0,1,1-5.429,5.429A5.429,5.429,0,0,1,80.859,125.429Zm-5.031,20.755a1.357,1.357,0,0,1,1.919,0l1.663,1.663,5.835-7a1.357,1.357,0,1,1,2.085,1.738l-6.786,8.143a1.357,1.357,0,0,1-.981.487H79.5a1.357,1.357,0,0,1-.96-.4L75.828,148.1a1.357,1.357,0,0,1,0-1.919Zm-30.256-19.4a1.357,1.357,0,0,1,1.357-1.357h.795l-.4-.4a1.357,1.357,0,0,1,1.919-1.919L51,124.867l1.755-1.755a1.357,1.357,0,1,1,1.919,1.919l-.4.4h.795a1.357,1.357,0,0,1,1.357,1.357v8.143a1.357,1.357,0,0,1-1.357,1.357H46.929a1.357,1.357,0,0,1-1.357-1.357Zm7.183,15.327a1.357,1.357,0,1,1,1.919,1.919l-2.714,2.714a1.357,1.357,0,0,1-1.919,0l-2.714-2.714a1.357,1.357,0,1,1,1.919-1.919l.4.4v-2.152a1.357,1.357,0,0,1,2.714,0v2.152Zm-17.719,8.226a1.357,1.357,0,0,1,1.035-.48H64.389l1.573-7.08a1.357,1.357,0,0,1,1.325-1.063h4.072a1.357,1.357,0,1,1,0,2.714H68.376l-4.9,22.051a4.072,4.072,0,1,1-5.455,2.379H46.7a4.072,4.072,0,1,1-7.676,0h-.233a1.357,1.357,0,0,1-1.339-1.134l-2.714-16.286A1.357,1.357,0,0,1,35.037,150.338Z" transform="translate(0 -53.142)" fill="#333"/>
    <path id="Path_54311" data-name="Path 54311" d="M105.967,56H34.036A2.038,2.038,0,0,0,32,58.036v6.107h76V58.036A2.038,2.038,0,0,0,105.967,56ZM93.074,61.429a1.357,1.357,0,1,1,1.357-1.357A1.357,1.357,0,0,1,93.074,61.429Zm5.429,0a1.357,1.357,0,1,1,1.357-1.357A1.357,1.357,0,0,1,98.5,61.429Zm5.429,0a1.357,1.357,0,1,1,1.357-1.357A1.357,1.357,0,0,1,103.931,61.429Z" transform="translate(0 0)" fill="#333"/>
    <path id="Path_54312" data-name="Path 54312" d="M76.562,378.714h5.391L81.5,376H76.11Z" transform="translate(-36.627 -265.712)" fill="#333"/>
    <circle id="Ellipse_9413" data-name="Ellipse 9413" cx="1.442" cy="1.442" r="1.442" transform="translate(41.161 115.886)" fill="#333"/>
    <path id="Path_54313" data-name="Path 54313" d="M71.229,346.714h5.391L76.168,344H70.777Z" transform="translate(-32.198 -239.141)" fill="#333"/>
  </g>
</svg>
