<svg xmlns="http://www.w3.org/2000/svg" width="61.069" height="58.414" viewBox="0 0 61.069 58.414">
  <g id="E-LEARNING_GAMIFICATION" data-name="E-LEARNING &amp; GAMIFICATION" transform="translate(-1 -2)">
    <g id="_37._Online_Learning" data-name="37. Online Learning" transform="translate(1 2)">
      <path id="Path_54265" data-name="Path 54265" d="M1,35.31a2.655,2.655,0,0,0,2.655,2.655H59.414a2.655,2.655,0,0,0,2.655-2.655V30H1Zm29.313-1.832a1.328,1.328,0,1,1,.489,1.61,1.328,1.328,0,0,1-.489-1.61Z" transform="translate(-1 7.172)" fill="#333"/>
      <path id="Path_54266" data-name="Path 54266" d="M21.034,38l-.584,2.655h9.439L29.292,38Z" transform="translate(5.371 9.793)" fill="#333"/>
      <path id="Path_54267" data-name="Path 54267" d="M35.914,42H17.328A1.328,1.328,0,0,0,16,43.328V47.31H37.241V43.328A1.328,1.328,0,0,0,35.914,42Z" transform="translate(3.914 11.103)" fill="#333"/>
      <path id="Path_54268" data-name="Path 54268" d="M25.913,13.294l7.753-2.655L25.913,8.05,18.16,10.639Z" transform="translate(4.621 -0.018)" fill="#333"/>
      <path id="Path_54269" data-name="Path 54269" d="M59.414,2H3.655A2.655,2.655,0,0,0,1,4.655V36.517H62.069V4.655A2.655,2.655,0,0,0,59.414,2ZM17.528,31.061c-5.722,2.868-5.47,2.8-5.908,2.8a1.328,1.328,0,0,1-1.328-1.328c0-5.735-.2-5.934.624-6.439s.956-.226,6.638,2.655a1.328,1.328,0,0,1-.027,2.31Zm2.058-13.13c0-4.5.173-3.85-.425-4.049a1.328,1.328,0,0,1,0-2.522c12.984-4.328,12.2-4.182,12.8-3.983l11.948,3.983a1.328,1.328,0,0,1,.9,1.261c0,1.261-.929,1.261-5.31,2.722v5.244a2.655,2.655,0,0,1-2.655,2.655H26.224a2.655,2.655,0,0,1-2.655-2.655V15.342L22.241,14.9v3.027a1.328,1.328,0,0,1-2.655,0ZM51.448,31.207H28.879a1.328,1.328,0,1,1-2.655,0H22.241a1.328,1.328,0,0,1,0-2.655h3.983a1.328,1.328,0,1,1,2.655,0H51.448a1.328,1.328,0,1,1,0,2.655Z" transform="translate(-1 -2)" fill="#333"/>
      <path id="Path_54270" data-name="Path 54270" d="M25.31,14.419c-.305,0,0,.066-5.31-1.7v4.354H30.621V12.72C25.31,14.486,25.616,14.419,25.31,14.419Z" transform="translate(5.224 1.512)" fill="#333"/>
    </g>
  </g>
</svg>
