<svg xmlns="http://www.w3.org/2000/svg" width="78.205" height="64.075" viewBox="0 0 78.205 64.075">
  <g id="Education_" data-name="Education " transform="translate(0 -46.252)">
    <g id="Group_19739" data-name="Group 19739" transform="translate(0 46.252)">
      <path id="Path_54278" data-name="Path 54278" d="M127.275,60.013h-2.446V50.839h2.446a2.294,2.294,0,1,0,0-4.587H69.8a9.174,9.174,0,1,0,0,18.348h2.3V57.728a2.294,2.294,0,0,1,2.294-2.294H88.1a2.294,2.294,0,0,1,2.294,2.294V64.6c2.411,0,33.207.027,36.884,0a2.294,2.294,0,1,0,0-4.587Z" transform="translate(-51.364 -46.252)" fill="#333"/>
      <path id="Path_54279" data-name="Path 54279" d="M174.881,143.441V136.4H165.76v7c1.45-.841,2.447-2.1,4.511-2.1S173.312,142.54,174.881,143.441Z" transform="translate(-140.441 -122.63)" fill="#333"/>
      <path id="Path_54280" data-name="Path 54280" d="M127.275,350.208a2.294,2.294,0,1,0,0-4.587H108.755v2.447a2.3,2.3,0,0,1-3.56,1.912l-5.637-3.733-5.522,3.723a2.3,2.3,0,0,1-3.576-1.9v-2.447H69.8a9.174,9.174,0,0,0,0,18.348h57.477a2.294,2.294,0,1,0,0-4.587h-2.446v-9.174h2.446Z" transform="translate(-51.364 -299.894)" fill="#333"/>
      <path id="Path_54281" data-name="Path 54281" d="M39.1,206.954a2.294,2.294,0,0,1,2.294-2.294H55.1a2.294,2.294,0,0,1,2.294,2.294v6.858h2.38a9.174,9.174,0,0,0,0-18.348H39.027v2.294a2.3,2.3,0,0,1-3.562,1.911l-5.636-3.739-5.521,3.728a2.3,2.3,0,0,1-3.577-1.9v-2.294H2.294a2.294,2.294,0,0,0,0,4.587H4.74v9.174H2.294a2.294,2.294,0,1,0,0,4.587c.57,0,27.384,0,36.8,0Z" transform="translate(0 -172.672)" fill="#333"/>
      <path id="Path_54282" data-name="Path 54282" d="M290.5,290.9c2.051,0,3.04,1.238,4.61,2.138v-7.328h-9.121v7.286C287.443,292.15,288.435,290.9,290.5,290.9Z" transform="translate(-242.304 -249.133)" fill="#333"/>
    </g>
  </g>
</svg>
