<svg id="Fast_Performance" data-name="Fast Performance" xmlns="http://www.w3.org/2000/svg" width="85.4" height="85.4" viewBox="0 0 85.4 85.4">
  <g id="Group_19800" data-name="Group 19800">
    <path id="Path_54320" data-name="Path 54320" d="M0,0V20.094H85.4V0ZM15.071,12.559H10.047V7.535h5.024Zm10.047,0H20.094V7.535h5.024Zm10.047,0H30.141V7.535h5.024Z" fill="#333"/>
    <path id="Path_54321" data-name="Path 54321" d="M230.024,375A5.029,5.029,0,0,0,225,380.024h10.047A5.029,5.029,0,0,0,230.024,375Z" transform="translate(-187.324 -312.206)" fill="#333"/>
    <path id="Path_54322" data-name="Path 54322" d="M135.922,263.384a19.76,19.76,0,0,0,1.306,5.024h8.587a10.016,10.016,0,0,1,3.059-7.209l-2.637-3.957,4.18-2.787,2.834,4.251a10.057,10.057,0,0,1,12.658,9.7H174.5a19.753,19.753,0,0,0,1.306-5.024h-4.869v-5.024H175.8a20,20,0,0,0-4.071-9.8l-3.434,3.434-3.552-3.552,3.434-3.434a20,20,0,0,0-9.8-4.071V245.8H153.35v-4.867a20,20,0,0,0-9.8,4.071l3.434,3.434-3.552,3.552-3.434-3.434a20,20,0,0,0-4.071,9.8h4.867v5.024h-4.869Z" transform="translate(-113.162 -200.59)" fill="#333"/>
    <path id="Path_54323" data-name="Path 54323" d="M0,210.282H85.4V150H0ZM10.047,192.7h8.686a25.118,25.118,0,1,1,47.934,0h8.686v5.024H10.047Z" transform="translate(0 -124.882)" fill="#333"/>
  </g>
</svg>
