<svg xmlns="http://www.w3.org/2000/svg" width="82.499" height="96.88" viewBox="0 0 82.499 96.88">
  <g id="Guaranteed_Protection" data-name="Guaranteed Protection" transform="translate(0 0.001)">
    <g id="surface1" transform="translate(0 -0.001)">
      <path id="Path_54324" data-name="Path 54324" d="M138.9,158.457a18.459,18.459,0,1,0,18.459,18.459A18.48,18.48,0,0,0,138.9,158.457Zm10.959,14.982-13.224,13.224a2.841,2.841,0,0,1-4.02,0l-5.053-5.053a2.842,2.842,0,0,1,4.019-4.019l3.044,3.044L145.84,169.42a2.842,2.842,0,0,1,4.019,4.019Zm0,0" transform="translate(-97.651 -128.474)" fill="#333"/>
      <path id="Path_54325" data-name="Path 54325" d="M82.4,26.285l0-.075c-.042-.931-.07-1.915-.087-3.011A10.268,10.268,0,0,0,72.645,13.14C61.506,12.519,52.889,8.887,45.527,1.71l-.063-.06a6.2,6.2,0,0,0-8.426,0l-.063.06C29.612,8.887,21,12.519,9.857,13.141A10.267,10.267,0,0,0,.189,23.2C.172,24.288.144,25.272.1,26.21l0,.175C-.12,37.743-.389,51.879,4.34,64.71a48.787,48.787,0,0,0,11.7,18.231c5.884,5.742,13.59,10.3,22.9,13.548a7.094,7.094,0,0,0,.939.256,6.933,6.933,0,0,0,2.726,0,7.115,7.115,0,0,0,.942-.257c9.3-3.254,17-7.814,22.88-13.555A48.855,48.855,0,0,0,78.14,64.7C82.887,51.827,82.619,37.665,82.4,26.285Zm-41.154,46.3A24.144,24.144,0,1,1,65.393,48.441,24.171,24.171,0,0,1,41.249,72.585Zm0,0" transform="translate(0 0.001)" fill="#333"/>
    </g>
  </g>
</svg>
