<svg xmlns="http://www.w3.org/2000/svg" width="83.076" height="66.648" viewBox="0 0 83.076 66.648">
  <g id="Health_Care" data-name="Health Care" transform="translate(-1 -3.972)">
    <g id="Heart" transform="translate(1 3.972)">
      <path id="Path_54297" data-name="Path 54297" d="M47.522,27.756a2.807,2.807,0,0,1-2.215,1.108,2.761,2.761,0,0,1-2.465-1.523L36.667,14.99l-2.908,4.32a2.755,2.755,0,0,1-2.3,1.246H3.769a2.769,2.769,0,1,0,0,5.538h15.9l20.6,24.064a2.852,2.852,0,0,0,2.1.969,2.742,2.742,0,0,0,2.077-.969l28.08-32.372H55Z" transform="translate(-1 15.52)" fill="#333"/>
      <path id="Path_54298" data-name="Path 54298" d="M77.58,26.2H74.246a20.233,20.233,0,0,0-1.235-10.468A18.357,18.357,0,0,0,57.448,4.049,22.557,22.557,0,0,0,38.812,11.47,22.524,22.524,0,0,0,20.175,4.049,18.338,18.338,0,0,0,4.584,15.79,19.669,19.669,0,0,0,6.634,34.51H26.239l4.735-7.061a2.745,2.745,0,0,1,4.763.277l6.314,12.627,5.621-7.5a2.807,2.807,0,0,1,2.215-1.108H77.58a2.769,2.769,0,0,0,0-5.538Z" transform="translate(2.726 -3.972)" fill="#333"/>
    </g>
  </g>
</svg>
