<svg xmlns="http://www.w3.org/2000/svg" width="62.526" height="67.929" viewBox="0 0 62.526 67.929">
  <g id="INFOGRAPHIC_VIDEOS" data-name="INFOGRAPHIC VIDEOS" transform="translate(-2 -1)">
    <path id="Path_54259" data-name="Path 54259" d="M19.087,12.684V1.319a6.166,6.166,0,0,0-1.037.823L3.142,17.051a6.166,6.166,0,0,0-.823,1.037H13.684a5.41,5.41,0,0,0,5.4-5.4Z" transform="translate(0.667 0.667)" fill="#333"/>
    <path id="Path_54260" data-name="Path 54260" d="M51.4,34.193V7.175A6.175,6.175,0,0,0,45.228,1H23.084a6.132,6.132,0,0,0-1.786.295V13.351A6.955,6.955,0,0,1,14.351,20.3H2.295A6.132,6.132,0,0,0,2,22.084v40.67a6.175,6.175,0,0,0,6.175,6.175H45.228A6.175,6.175,0,0,0,51.4,62.754V54.263H40.651A17.711,17.711,0,1,1,10.087,36.385a3.907,3.907,0,0,1,2.884-1.829,3.8,3.8,0,0,1,3.166,1.1L24.8,44.32A2.332,2.332,0,0,0,26.435,45H38.684A3.824,3.824,0,0,1,41.7,46.46a3.921,3.921,0,0,1,.739,3.359,17.4,17.4,0,0,1-.965,2.9H51.4V35.737H45.444c.148.453.337.886.448,1.355a3.921,3.921,0,0,1-.739,3.359,3.824,3.824,0,0,1-3.017,1.461H29.887a3.833,3.833,0,0,1-2.729-1.131L18.5,32.12a3.831,3.831,0,0,1-1.1-3.166,3.905,3.905,0,0,1,1.83-2.884,17.736,17.736,0,0,1,9.384-2.684A17.956,17.956,0,0,1,44.926,34.193ZM26.7,6.4h6.175a.772.772,0,0,1,0,1.544H26.7a.772.772,0,1,1,0-1.544ZM39.052,20.3H26.7a.772.772,0,1,1,0-1.544H39.052a.772.772,0,1,1,0,1.544ZM26.7,14.123a.772.772,0,1,1,0-1.544H45.228a.772.772,0,0,1,0,1.544Z" fill="#333"/>
    <path id="Path_54261" data-name="Path 54261" d="M21.44,18.013H31.748A16.361,16.361,0,0,0,17.174,8.75,16.181,16.181,0,0,0,8.606,11.2a2.368,2.368,0,0,0-1.112,1.749,2.3,2.3,0,0,0,.66,1.9l8.659,8.661a2.332,2.332,0,0,0,1.636.679H30.7a2.294,2.294,0,0,0,1.806-.874,2.4,2.4,0,0,0,.448-2.046,15.7,15.7,0,0,0-.566-1.711H21.44a.772.772,0,1,1,0-1.544Z" transform="translate(11.437 16.18)" fill="#333"/>
    <path id="Path_54262" data-name="Path 54262" d="M18.916,29H35.034a15.823,15.823,0,0,0,1.2-3.255A2.4,2.4,0,0,0,35.79,23.7a2.293,2.293,0,0,0-1.806-.874H21.738A3.832,3.832,0,0,1,19.009,21.7l-8.662-8.662a2.32,2.32,0,0,0-1.9-.66A2.37,2.37,0,0,0,6.7,13.486a16.185,16.185,0,1,0,27.51,17.06H18.916a.772.772,0,0,1,0-1.544Z" transform="translate(4.698 23.716)" fill="#333"/>
    <path id="Path_54263" data-name="Path 54263" d="M20.573,17.469a6.9,6.9,0,0,0,4.913-2.035l4.366-4.366a.772.772,0,0,0-1.092-1.092L24.4,14.342a5.369,5.369,0,0,1-3.822,1.583H18.5v1.544Z" transform="translate(34.447 18.267)" fill="#333"/>
    <path id="Path_54264" data-name="Path 54264" d="M28.761,15.976,24.4,20.342a5.369,5.369,0,0,1-3.822,1.583H18.5v1.544h2.073a6.9,6.9,0,0,0,4.913-2.035l4.366-4.366a.772.772,0,0,0-1.092-1.092Z" transform="translate(34.447 30.793)" fill="#333"/>
  </g>
</svg>
