<svg xmlns="http://www.w3.org/2000/svg" width="95.082" height="101" viewBox="0 0 95.082 101">
  <g id="Innovative_Solutions" data-name="Innovative Solutions" transform="translate(-15 0)">
    <g id="Group_19795" data-name="Group 19795" transform="translate(15 0)">
      <path id="Path_54315" data-name="Path 54315" d="M337.775,2.958V9.711a5.918,5.918,0,1,1,0,11.836v6.9a2.959,2.959,0,0,0,2.959,2.959h6.9a5.918,5.918,0,1,0,11.836,0h6.753a2.967,2.967,0,0,0,2.941-3.288A31.573,31.573,0,0,0,341.063.017a2.967,2.967,0,0,0-3.288,2.941Z" transform="translate(-274.103 0)" fill="#333"/>
      <path id="Path_54316" data-name="Path 54316" d="M32.139,61.34A9.449,9.449,0,0,1,41.1,67.812h8.3V59.983a6.473,6.473,0,1,0,0-12.945V36.25A34.523,34.523,0,0,0,15.006,67.812h8.177A9.449,9.449,0,0,1,32.139,61.34Z" transform="translate(-15.005 -29.099)" fill="#333"/>
      <path id="Path_54317" data-name="Path 54317" d="M218.661,217.723a6.473,6.473,0,0,1-6.473-6.473h-7.829v8.3a9.433,9.433,0,0,1,0,17.913V254.4H216.5a23.139,23.139,0,0,1,7.781-17.334,34.378,34.378,0,0,0,11.638-25.818H225.133a6.472,6.472,0,0,1-6.472,6.473Z" transform="translate(-167.005 -169.578)" fill="#333"/>
      <path id="Path_54318" data-name="Path 54318" d="M46.436,220.685a2.959,2.959,0,0,1,2.959-2.959,3.514,3.514,0,0,0,0-7.027,2.959,2.959,0,0,1-2.959-2.959v-7.829H38.607a2.959,2.959,0,0,1-2.959-2.959,3.514,3.514,0,1,0-7.027,0,2.959,2.959,0,0,1-2.959,2.959H15A34.386,34.386,0,0,0,26.511,222.77,23.139,23.139,0,0,1,34.292,240.1H46.436V220.685Z" transform="translate(-15 -155.279)" fill="#333"/>
      <path id="Path_54319" data-name="Path 54319" d="M113.359,463.353a6.9,6.9,0,0,0,6.9,6.9h16.073a6.9,6.9,0,0,0,6.9-6.7l.106-3.559H113.359Z" transform="translate(-93.956 -369.258)" fill="#333"/>
    </g>
  </g>
</svg>
