<svg xmlns="http://www.w3.org/2000/svg" width="75.082" height="75.083" viewBox="0 0 75.082 75.083">
  <g id="Investment_" data-name="Investment " transform="translate(-0.004 0)">
    <g id="Group_19747" data-name="Group 19747" transform="translate(35.345 26.543)">
      <g id="Group_19746" data-name="Group 19746">
        <path id="Path_54283" data-name="Path 54283" d="M260.8,181.005a19.8,19.8,0,1,0,19.944,19.8A19.819,19.819,0,0,0,260.8,181.005Zm2.257,30.4c-.019.007-.039,0-.058.01V214a2.2,2.2,0,0,1-4.4,0v-2.6a9.046,9.046,0,0,1-4.024-2.833,2.2,2.2,0,0,1,3.368-2.827c1.164,1.386,2.481,1.935,3.607,1.532A2.2,2.2,0,0,0,260.8,203a6.6,6.6,0,0,1-2.571-12.678c.121-.051.249-.048.372-.092V187.6a2.2,2.2,0,1,1,4.4,0v2.631a8.5,8.5,0,0,1,3.241,1.957,2.2,2.2,0,1,1-3.063,3.158,3.005,3.005,0,0,0-3.233-.975,2.2,2.2,0,0,0,.855,4.228,6.6,6.6,0,0,1,2.258,12.8Z" transform="translate(-241 -181.005)" fill="#333"/>
      </g>
    </g>
    <g id="Group_19749" data-name="Group 19749" transform="translate(0.004 48.54)">
      <g id="Group_19748" data-name="Group 19748" transform="translate(0)">
        <path id="Path_54284" data-name="Path 54284" d="M2.2,331A2.2,2.2,0,0,0,0,333.2v22.143a2.2,2.2,0,0,0,2.2,2.2H8.8V331Z" transform="translate(-0.004 -331.003)" fill="#333"/>
      </g>
    </g>
    <g id="Group_19751" data-name="Group 19751" transform="translate(17.748 -0.001)">
      <g id="Group_19750" data-name="Group 19750" transform="translate(0 0)">
        <path id="Path_54285" data-name="Path 54285" d="M155.429,13.729l-15.4-13.2a2.191,2.191,0,0,0-2.861,0l-15.4,13.2A2.2,2.2,0,0,0,123.2,17.6h6.6V75.083h15.4a2.2,2.2,0,0,0,2.2-2.2V67.866a24.152,24.152,0,0,1,0-43.05V17.6H154a2.2,2.2,0,0,0,1.431-3.869Z" transform="translate(-121.003 0.001)" fill="#333"/>
      </g>
    </g>
    <g id="Group_19753" data-name="Group 19753" transform="translate(13.349 30.943)">
      <g id="Group_19752" data-name="Group 19752">
        <path id="Path_54286" data-name="Path 54286" d="M93.2,211.005a2.2,2.2,0,0,0-2.2,2.2v41.94h8.8v-44.14Z" transform="translate(-91.002 -211.005)" fill="#333"/>
      </g>
    </g>
  </g>
</svg>
