<svg xmlns="http://www.w3.org/2000/svg" width="79.41" height="65.875" viewBox="0 0 79.41 65.875">
  <g id="Markting" transform="translate(-1 -3)">
    <circle id="Ellipse_9409" data-name="Ellipse 9409" cx="2.707" cy="2.707" r="2.707" transform="translate(37.998 50.827)" fill="#333"/>
    <path id="Path_54289" data-name="Path 54289" d="M11.762,10.25H8.152a.9.9,0,0,0-.9.9V22.883h5.414V11.152A.9.9,0,0,0,11.762,10.25Z" transform="translate(16.31 18.919)" fill="#333"/>
    <path id="Path_54290" data-name="Path 54290" d="M14.762,10.25h-3.61a.9.9,0,0,0-.9.9V22.883h5.414V11.152A.9.9,0,0,0,14.762,10.25Z" transform="translate(24.138 18.919)" fill="#333"/>
    <path id="Path_54291" data-name="Path 54291" d="M11.762,5.25H8.152a.9.9,0,0,0-.9.9V17.883h5.414V6.152A.9.9,0,0,0,11.762,5.25Z" transform="translate(16.31 5.872)" fill="#333"/>
    <path id="Path_54292" data-name="Path 54292" d="M8.762,5.25H5.152a.9.9,0,0,0-.9.9V17.883H9.664V6.152A.9.9,0,0,0,8.762,5.25Z" transform="translate(8.481 5.872)" fill="#333"/>
    <path id="Path_54293" data-name="Path 54293" d="M69.749,4.25H5.138A2.891,2.891,0,0,0,2.25,7.138V39.263A2.891,2.891,0,0,0,5.138,42.15H69.749a2.891,2.891,0,0,0,2.888-2.888V7.138A2.891,2.891,0,0,0,69.749,4.25Zm-35.915,1.8h7.219a.9.9,0,1,1,0,1.8H33.834a.9.9,0,0,1,0-1.8Zm0,7.219H55.491a.9.9,0,0,1,0,1.8H33.834a.9.9,0,0,1,0-1.8ZM52.784,25a.9.9,0,0,1-.9.9H44.662a.9.9,0,1,1,0-1.8h7.219A.9.9,0,0,1,52.784,25ZM41.053,40.346H4.957a.9.9,0,1,1,0-1.8H7.664V26.81A2.71,2.71,0,0,1,10.372,24.1h3.61a2.71,2.71,0,0,1,2.707,2.707V38.541h1.8V26.81A2.71,2.71,0,0,1,21.2,24.1h3.61a2.71,2.71,0,0,1,2.707,2.707V38.541h1.8V26.81A2.71,2.71,0,0,1,32.029,24.1h3.61a2.71,2.71,0,0,1,2.707,2.707V38.541h2.707a.9.9,0,0,1,0,1.8Zm0-18.048H4.957a.9.9,0,1,1,0-1.8H7.664V8.762a2.71,2.71,0,0,1,2.707-2.707h3.61a2.71,2.71,0,0,1,2.707,2.707V20.493h1.8V8.762A2.71,2.71,0,0,1,21.2,6.055h3.61a2.71,2.71,0,0,1,2.707,2.707V20.493H41.053a.9.9,0,0,1,0,1.8ZM59.1,33.126H44.662a.9.9,0,1,1,0-1.8H59.1a.9.9,0,1,1,0,1.8Z" transform="translate(3.262 3.262)" fill="#333"/>
    <path id="Path_54294" data-name="Path 54294" d="M8.762,10.25H5.152a.9.9,0,0,0-.9.9V22.883H9.664V11.152A.9.9,0,0,0,8.762,10.25Z" transform="translate(8.481 18.919)" fill="#333"/>
    <path id="Path_54295" data-name="Path 54295" d="M73.191,3H8.219A7.24,7.24,0,0,0,1,10.219V53.534a7.24,7.24,0,0,0,7.219,7.219H73.191a7.24,7.24,0,0,0,7.219-7.219V10.219A7.24,7.24,0,0,0,73.191,3ZM40.705,58.046a4.512,4.512,0,1,1,4.512-4.512,4.512,4.512,0,0,1-4.512,4.512Zm37-15.521a4.7,4.7,0,0,1-4.692,4.692H8.4a4.7,4.7,0,0,1-4.692-4.692V10.4A4.7,4.7,0,0,1,8.4,5.707H73.011A4.7,4.7,0,0,1,77.7,10.4Z" fill="#333"/>
    <path id="Path_54296" data-name="Path 54296" d="M15.774,24.012H7.652a.9.9,0,0,0,0,1.8h36.1a.9.9,0,0,0,0-1.8H35.626L31.115,19.5H20.286Z" transform="translate(15.005 43.058)" fill="#333"/>
  </g>
</svg>
