<svg xmlns="http://www.w3.org/2000/svg" width="56.863" height="54.731" viewBox="0 0 56.863 54.731">
  <g id="Motion_video_Graphics" data-name="Motion &amp; video Graphics" transform="translate(0 -9)">
    <g id="Group_19736" data-name="Group 19736" transform="translate(0 9)">
      <path id="Path_54255" data-name="Path 54255" d="M56.863,13.62v-.829A3.791,3.791,0,0,0,53.072,9H3.791A3.791,3.791,0,0,0,0,12.791v.829a.711.711,0,0,0,.711.711H56.152A.711.711,0,0,0,56.863,13.62Z" transform="translate(0 -9)" fill="#333"/>
      <ellipse id="Ellipse_9405" data-name="Ellipse 9405" cx="4.115" cy="4.489" rx="4.115" ry="4.489" transform="translate(37.41 19.883)" fill="#333"/>
      <path id="Path_54256" data-name="Path 54256" d="M67.1,365.872c-3.647-2.159-3.443-2.07-3.62-2.07a.476.476,0,0,0-.476.476v4a.474.474,0,0,0,.715.408l3.382-2A.474.474,0,0,0,67.1,365.872Z" transform="translate(-55.537 -321.77)" fill="#333"/>
      <path id="Path_54257" data-name="Path 54257" d="M98.647,112h-41.7a.949.949,0,0,0-.948.948v19.428a.949.949,0,0,0,.948.948h41.7a.949.949,0,0,0,.948-.948V112.948A.949.949,0,0,0,98.647,112Zm-19.7,16.073a8.378,8.378,0,0,0-3.632,2.2.948.948,0,0,1-1.555-.3c-2.444-5.894-8.288-8.992-14.213-7.533a.948.948,0,1,1-.453-1.84,13.9,13.9,0,0,1,15.862,7.448,10.247,10.247,0,0,1,3.457-1.793.948.948,0,0,1,.535,1.818Zm2.913-5.885a9.96,9.96,0,0,0-5.259,1.933.948.948,0,0,1-1.392-.3c-2.069-3.721-6.329-6.164-11.69-6.7a.948.948,0,1,1,.189-1.886c5.566.559,10.1,3.014,12.621,6.789a11.841,11.841,0,0,1,5.4-1.723.948.948,0,0,1,.128,1.891Zm9.09,8.53a6.279,6.279,0,1,1,6.279-6.279A6.286,6.286,0,0,1,90.947,130.717Z" transform="translate(-49.366 -99.798)" fill="#333"/>
      <path id="Path_54258" data-name="Path 54258" d="M0,70.711v43A3.791,3.791,0,0,0,3.791,117.5H53.072a3.791,3.791,0,0,0,3.791-3.791v-43A.711.711,0,0,0,56.152,70H.711A.711.711,0,0,0,0,70.711Zm12.526,38.612-3.382,2a2.369,2.369,0,0,1-3.576-2.039v-4a2.369,2.369,0,0,1,3.576-2.039l3.382,2A2.369,2.369,0,0,1,12.526,109.323Zm37.822-.111a.948.948,0,1,1,0,1.9H22.982v.474a.948.948,0,1,1-1.9,0v-.474H17.861a.948.948,0,0,1,0-1.9h3.225v-3.791H17.861a.948.948,0,1,1,0-1.9h3.225v-.474a.948.948,0,1,1,1.9,0v.474H50.348a.948.948,0,1,1,0,1.9H22.982v3.791Zm1.777-13.86a2.846,2.846,0,0,1-2.843,2.843H7.582a2.846,2.846,0,0,1-2.843-2.843V75.923A2.846,2.846,0,0,1,7.582,73.08h41.7a2.846,2.846,0,0,1,2.843,2.843Z" transform="translate(0 -62.774)" fill="#333"/>
    </g>
  </g>
</svg>
