<svg xmlns="http://www.w3.org/2000/svg" xmlns:xlink="http://www.w3.org/1999/xlink" width="39.609" height="39.61" viewBox="0 0 39.609 39.61">
  <defs>
    <linearGradient id="linear-gradient" x1="0.332" y1="0.141" x2="0.585" y2="0.682" gradientUnits="objectBoundingBox">
      <stop offset="0" stop-color="#00c3ff"/>
      <stop offset="1" stop-color="#00b0ed"/>
    </linearGradient>
    <linearGradient id="linear-gradient-2" x1="0.738" y1="0.628" x2="-0.899" y2="-0.25" gradientUnits="objectBoundingBox">
      <stop offset="0" stop-color="#00b0ed" stop-opacity="0"/>
      <stop offset="1" stop-color="#00a2ce"/>
    </linearGradient>
    <linearGradient id="linear-gradient-3" x1="0.946" y1="0.922" x2="0.342" y2="0.273" xlink:href="#linear-gradient-2"/>
  </defs>
  <g id="Group_1197" data-name="Group 1197" transform="translate(-1256.903 -4459.136)">
    <path id="Path_30754" data-name="Path 30754" d="M32.524,38.93a119.636,119.636,0,0,1-25.44,0A7.212,7.212,0,0,1,.678,32.523a119.632,119.632,0,0,1,0-25.439A7.212,7.212,0,0,1,7.084.678a119.634,119.634,0,0,1,25.439,0,7.212,7.212,0,0,1,6.407,6.406,119.633,119.633,0,0,1,0,25.439,7.212,7.212,0,0,1-6.406,6.407Zm0,0" transform="translate(1256.903 4459.137)" fill="url(#linear-gradient)"/>
    <path id="Path_30755" data-name="Path 30755" d="M63.38,35.121a6.4,6.4,0,0,0-5.685-5.685,106.2,106.2,0,0,0-22.574,0,6.4,6.4,0,0,0-5.685,5.685,106.2,106.2,0,0,0,0,22.574,6.4,6.4,0,0,0,5.685,5.685,106.158,106.158,0,0,0,22.574,0,6.4,6.4,0,0,0,5.685-5.685,106.159,106.159,0,0,0,0-22.574Zm0,0" transform="translate(1230.3 4432.533)" fill="url(#linear-gradient-2)"/>
    <path id="Path_30757" data-name="Path 30757" d="M129.393,135.307l-8.222-8.221a9.812,9.812,0,0,1-2.345.981,6.71,6.71,0,0,1-.827.17,5.105,5.105,0,0,0-8.76,3.565c0,.1,0,.2.009.3a4.925,4.925,0,0,0,.093.718,13.986,13.986,0,0,1-8.651-3.459h0l-1.721-1.721s-2.019,3.523.949,6.2a5.65,5.65,0,0,0,.43.43l.038.041a5,5,0,0,1-2.239-.622,4.954,4.954,0,0,0,1.658,3.739l1.449,1.461a2.819,2.819,0,0,1-1.269-.121,4.879,4.879,0,0,0,1.461,2.3l2.03,2.04a10.506,10.506,0,0,1-6.154,1.37l12.312,12.03a119.764,119.764,0,0,0,12.684-.678,7.212,7.212,0,0,0,6.407-6.406,119.809,119.809,0,0,0,.669-14.112Zm0,0" transform="translate(1167.111 4342.242)" fill="url(#linear-gradient-3)"/>
    <path id="Path_30758" data-name="Path 30758" d="M121.869,129.068a9.235,9.235,0,0,1-2.634.731l-.011-.062a4.9,4.9,0,0,0,1.943-2.653,9.812,9.812,0,0,1-2.345.981,6.761,6.761,0,0,1-.826.17,5.105,5.105,0,0,0-8.76,3.565c0,.1,0,.2.009.3a4.923,4.923,0,0,0,.093.718,14.27,14.27,0,0,1-10.373-5.18,5.049,5.049,0,0,0,1.548,6.675,5.324,5.324,0,0,1-2.37-.629s-.242,3.822,4.16,5.03a4.83,4.83,0,0,1-2.322.049,4.924,4.924,0,0,0,4.644,3.531,10.173,10.173,0,0,1-7.307,2.175,14.428,14.428,0,0,0,22.13-12.2q0-.149,0-.3c0-.059,0-.118,0-.177,0-.041,0-.083,0-.124a9.027,9.027,0,0,0,2.423-2.609Zm0,0" transform="translate(1167.115 4342.243)" fill="#fff"/>
  </g>
</svg>
