<svg xmlns="http://www.w3.org/2000/svg" width="45.999" height="66.062" viewBox="0 0 45.999 66.062">
  <g id="UI_UX_CONSULTANCY" data-name="UI &amp; UX CONSULTANCY" transform="translate(-10 -1)">
    <g id="User_Experience" data-name="User Experience" transform="translate(10 1)">
      <path id="Path_54271" data-name="Path 54271" d="M27.88,49.667l2.226.732v-11.8H18.617a1.436,1.436,0,1,1,0-2.872H30.106a5.745,5.745,0,0,1,9.823-4.036c2.111,2.054,1.666,4.438,1.666,8.344a5.745,5.745,0,0,1,4.064,1.695,5.744,5.744,0,0,1,4.553.517V7H10V55.828H20.556a5.6,5.6,0,0,1,7.324-6.161Zm3.949-34.625a1.436,1.436,0,1,1,2.3-1.723l3.159,4.208,3.159-4.208a1.436,1.436,0,0,1,2.3,1.723l-3.662,4.883,3.662,4.883a1.436,1.436,0,0,1-1.149,2.3c-.977,0-1.034-.416-4.308-4.782-3.332,4.423-3.346,4.782-4.308,4.782a1.436,1.436,0,0,1-1.149-2.3l3.662-4.883Zm-14.649-.862a1.436,1.436,0,1,1,2.872,0v7.181a2.872,2.872,0,1,0,5.745,0V14.181a1.436,1.436,0,1,1,2.872,0v7.181a5.745,5.745,0,1,1-11.489,0Zm1.436,15.8h8.617a1.436,1.436,0,0,1,0,2.872H18.617a1.436,1.436,0,1,1,0-2.872Zm0,11.489h5.745a1.436,1.436,0,1,1,0,2.872H18.617a1.436,1.436,0,1,1,0-2.872Z" transform="translate(-10 1.617)" fill="#333"/>
      <path id="Path_54272" data-name="Path 54272" d="M44.467,1H15.745A5.745,5.745,0,0,0,10,6.745H50.212A5.745,5.745,0,0,0,44.467,1Z" transform="translate(-10 -1)" fill="#333"/>
      <path id="Path_54273" data-name="Path 54273" d="M21.92,43H10a5.745,5.745,0,0,0,5.745,5.745h12.81C21.819,43,22.351,43.474,21.92,43Z" transform="translate(-10 17.317)" fill="#333"/>
      <path id="Path_54274" data-name="Path 54274" d="M51.017,38.769a2.872,2.872,0,0,0-4.9,2.025V39.358a2.872,2.872,0,0,0-5.745,0V37.922a2.872,2.872,0,0,0-5.745,0c0-10.785.3-10.958-.847-12.078a2.872,2.872,0,0,0-4.9,2.025v18.67l-6.032-2.011a2.729,2.729,0,0,0-2.585,4.639l8.617,7.425H51.864C51.864,39.9,52.194,39.918,51.017,38.769Z" transform="translate(-5.908 9.471)" fill="#333"/>
    </g>
  </g>
</svg>
