<svg xmlns="http://www.w3.org/2000/svg" width="39.609" height="39.609" viewBox="0 0 39.609 39.609">
  <g id="Group_1196" data-name="Group 1196" transform="translate(-1310.225 -4459.136)">
    <path id="Path_34461" data-name="Path 34461" d="M32.524,38.93a119.636,119.636,0,0,1-25.44,0A7.212,7.212,0,0,1,.678,32.523a119.632,119.632,0,0,1,0-25.439A7.212,7.212,0,0,1,7.084.678a119.634,119.634,0,0,1,25.439,0,7.212,7.212,0,0,1,6.407,6.406,119.633,119.633,0,0,1,0,25.439,7.212,7.212,0,0,1-6.406,6.407Zm0,0" transform="translate(1310.225 4459.137)" fill="#6dbc61"/>
    <path id="Path_34462" data-name="Path 34462" d="M63.38,35.121a6.4,6.4,0,0,0-5.685-5.685,106.2,106.2,0,0,0-22.574,0,6.4,6.4,0,0,0-5.685,5.685,106.2,106.2,0,0,0,0,22.574,6.4,6.4,0,0,0,5.685,5.685,106.158,106.158,0,0,0,22.574,0,6.4,6.4,0,0,0,5.685-5.685,106.159,106.159,0,0,0,0-22.574Zm0,0" transform="translate(1283.622 4432.533)" fill="#67b45b"/>
    <path id="Path_34463" data-name="Path 34463" d="M49.61,32.786a3.939,3.939,0,0,0-3.419-3.574,61.122,61.122,0,0,0-13.576,0A3.94,3.94,0,0,0,29.2,32.786a69.763,69.763,0,0,0,0,14.191,3.939,3.939,0,0,0,3.419,3.574,61.1,61.1,0,0,0,13.576,0,3.939,3.939,0,0,0,3.419-3.574,69.737,69.737,0,0,0,0-14.191Zm0,0" transform="translate(1293.198 4438.015)" fill="#fff"/>
    <path id="Path_34456" data-name="Path 34456" d="M15.621,0h-.01A15.6,15.6,0,0,0,2.974,24.768l-1.945,5.8,6-1.919A15.613,15.613,0,1,0,15.621,0Zm9.085,22.051a4.4,4.4,0,0,1-3.065,2.2c-.817.174-1.881.312-5.469-1.176-4.589-1.9-7.545-6.564-7.774-6.867A8.919,8.919,0,0,1,6.543,11.5a4.986,4.986,0,0,1,1.6-3.8,2.265,2.265,0,0,1,1.6-.559c.193,0,.367.009.523.017.459.019.688.047.991.772.376.908,1.294,3.149,1.4,3.378a.93.93,0,0,1,.064.844,2.738,2.738,0,0,1-.5.717c-.23.265-.451.468-.68.753-.211.248-.45.514-.183.973a13.877,13.877,0,0,0,2.533,3.148A11.5,11.5,0,0,0,17.548,20a.987.987,0,0,0,1.1-.174,19.241,19.241,0,0,0,1.221-1.615.871.871,0,0,1,1.119-.341c.423.147,2.654,1.249,3.113,1.478s.761.34.871.532A3.882,3.882,0,0,1,24.706,22.051Z" transform="translate(1317.462 4463.326)" fill="#7fd371"/>
    <path id="Path_34457" data-name="Path 34457" d="M0,15.615a15.508,15.508,0,0,0,2.974,9.153l-1.945,5.8,6-1.919A15.613,15.613,0,1,0,15.621,0h-.01m9.095,22.051a4.4,4.4,0,0,1-3.065,2.2c-.817.174-1.881.312-5.469-1.176-4.589-1.9-7.545-6.564-7.774-6.867A8.919,8.919,0,0,1,6.543,11.5a4.986,4.986,0,0,1,1.6-3.8,2.265,2.265,0,0,1,1.6-.559c.193,0,.367.009.523.017.459.019.688.047.991.772.376.908,1.294,3.149,1.4,3.378a.93.93,0,0,1,.064.844,2.738,2.738,0,0,1-.5.717c-.23.265-.451.468-.68.753-.211.248-.45.514-.183.973a13.877,13.877,0,0,0,2.533,3.148A11.5,11.5,0,0,0,17.548,20a.987.987,0,0,0,1.1-.174,19.241,19.241,0,0,0,1.221-1.615.871.871,0,0,1,1.119-.341c.423.147,2.654,1.249,3.113,1.478s.761.34.871.532A3.882,3.882,0,0,1,24.706,22.051Z" transform="translate(1317.462 4463.326)" fill="#6dbc61"/>
    <g id="Group_1189" data-name="Group 1189" transform="translate(1318.49 4464.15)">
      <path id="Path_34458" data-name="Path 34458" d="M35.921,13.08c3.981,3.4,6.58,8.606,6.58,13.011a11.481,11.481,0,0,1-2.163,6.646,5.567,5.567,0,0,1-.325,1.571,4.4,4.4,0,0,1-3.065,2.2,4.152,4.152,0,0,1-.764.1,18.224,18.224,0,0,1-17.922.464l-1.927,5.752,6-1.919A15.612,15.612,0,1,0,35.921,13.08Z" transform="translate(-16.336 -13.08)" fill="#66a858"/>
      <path id="Path_34459" data-name="Path 34459" d="M186.8,132.371c.1.036.318.131.588.255l-10.435-10.435q.054.1.11.238c.376.908,1.294,3.149,1.4,3.378a.93.93,0,0,1,.064.844,2.738,2.738,0,0,1-.5.717c-.23.265-.451.468-.68.753-.211.248-.45.514-.183.973a13.879,13.879,0,0,0,2.533,3.148,11.5,11.5,0,0,0,3.662,2.259.988.988,0,0,0,1.1-.174,19.241,19.241,0,0,0,1.221-1.615A.87.87,0,0,1,186.8,132.371Z" transform="translate(-166.839 -115.322)" fill="#66a858"/>
    </g>
    <path id="Path_34460" data-name="Path 34460" d="M102.407,182.9l-.1.1.112.112C102.412,183.04,102.407,182.968,102.407,182.9Z" transform="translate(1221.599 4291.946)" fill="#5caa4f"/>
  </g>
</svg>
